<svg xmlns="http://www.w3.org/2000/svg" viewBox="0 0 64 64"><path d="M32.84 55.5A23.873 23.873 0 0 0 44.93 49H36.4A19.851 19.851 0 0 1 32.84 55.5zM60 41H36v6H60zM40 45H38V43h2zm4 0H42V43h2zm4 0H46V43h2zm10 0H50V43h8zM44.93 15A23.873 23.873 0 0 0 32.84 8.5 19.851 19.851 0 0 1 36.4 15zM28 56c2.3 0 4.64-2.69 6.36-7.25A.954.954 0 0 1 34 48V47H21.04C22.8 52.65 25.45 56 28 56zM18.43 45a55.7 55.7 0 0 1-1.42-12H4.03A23.887 23.887 0 0 0 7.84 45zM20.48 45H34V33H19.02A53.141 53.141 0 0 0 20.48 45zM18.96 17a22.217 22.217 0 0 1 4.28-8.52A24 24 0 0 0 9.29 17zM28 8c-2.55 0-5.2 3.35-6.96 9H34V16a.954.954 0 0 1 .36-.75C32.64 10.69 30.3 8 28 8zM23.24 55.52A22.217 22.217 0 0 1 18.96 47H9.29A24 24 0 0 0 23.24 55.52zM4.03 31H17.01a55.7 55.7 0 0 1 1.42-12H7.84A23.887 23.887 0 0 0 4.03 31zM60 33H36v6H60zM40 37H38V35h2zm4 0H42V35h2zm4 0H46V35h2zm10 0H50V35h8zM60 17H36v6H60zM40 21H38V19h2zm4 0H42V19h2zm4 0H46V19h2zm10 0H50V19h8zM60 25H36v6H60zM40 29H38V27h2zm4 0H42V27h2zm4 0H46V27h2zm10 0H50V27h8zM34 19H20.48a53.141 53.141 0 0 0-1.46 12H34z"/></svg>